<svg xmlns="http://www.w3.org/2000/svg" width="40" height="40" viewBox="0 0 40 40">
    <g fill="none" fill-rule="evenodd">
        <circle cx="20" cy="20" r="20" fill="#62ABFB"/>
        <g fill="#FFF" fill-rule="nonzero" transform="translate(11 11)">
            <path d="M12.375 0h-6.75A5.626 5.626 0 0 0 0 5.625v6.75A5.626 5.626 0 0 0 5.625 18h6.75A5.626 5.626 0 0 0 18 12.375v-6.75A5.626 5.626 0 0 0 12.375 0zm3.938 12.375a3.942 3.942 0 0 1-3.938 3.938h-6.75a3.942 3.942 0 0 1-3.938-3.938v-6.75a3.942 3.942 0 0 1 3.938-3.938h6.75a3.942 3.942 0 0 1 3.938 3.938v6.75z"/>
            <path d="M9 4.5a4.5 4.5 0 1 0 0 9 4.5 4.5 0 0 0 0-9zm0 7.313A2.816 2.816 0 0 1 6.187 9 2.816 2.816 0 0 1 9 6.187 2.816 2.816 0 0 1 11.813 9 2.816 2.816 0 0 1 9 11.813z"/>
            <circle cx="13.838" cy="4.162" r="1"/>
        </g>
    </g>
</svg>
